<?xml version="1.0" encoding="utf-8"?>
<!-- Generator: Adobe Illustrator 16.0.0, SVG Export Plug-In . SVG Version: 6.00 Build 0)  -->
<!DOCTYPE svg PUBLIC "-//W3C//DTD SVG 1.1//EN" "http://www.w3.org/Graphics/SVG/1.1/DTD/svg11.dtd">
<svg version="1.1" id="Layer_1" xmlns="http://www.w3.org/2000/svg" xmlns:xlink="http://www.w3.org/1999/xlink" x="0px" y="0px"
	 width="250px" height="150px" viewBox="0 0 250 150" enable-background="new 0 0 250 150" xml:space="preserve">
<path fill="#15253F" d="M65.431,12.507c-34.557,0-62.567,28.009-62.567,62.563c0,34.542,28.01,62.551,62.567,62.551
	c34.553,0,62.566-28.01,62.566-62.551C127.997,40.516,99.983,12.507,65.431,12.507z"/>
<g>
	<g>
		<path fill="#FFFFFF" d="M53.273,67.02l-6.049-2.368l-5.233,3.595V52.245l-11.302,3.719v7.289c1.221,0.058,2.539,0.361,3.923,0.959
			c6.028,2.603,10.91,9.598,10.91,15.622c0,6.027-4.882,8.796-10.91,6.191c-1.384-0.606-2.702-1.442-3.923-2.44v12.81l45.253,14.872
			V41.083l-22.669,7.452V67.02z M98.993,52.245v16.002l-3.034-3.595l-3.506,2.368V48.535l-13.141-7.452v70.183l26.237-14.872v-40.43
			L98.993,52.245z"/>
		<path fill="#FFC534" d="M33.474,65.856L9.759,55.602c0,3.818,3.096,8.248,6.913,9.895l0.07,0.032c0,2.76,2.24,5.98,5.008,7.175
			l2.346,1.016c1.021,4.689,4.816,9.505,9.378,11.469c5.339,2.31,9.664-0.146,9.664-5.488
			C43.138,74.366,38.813,68.167,33.474,65.856z"/>
	</g>
	<g>
		<text transform="matrix(1 0 0 1 130.8848 72.3555)" fill="#FFC534" font-family="'Poppins-BoldItalic'" font-size="31.8917">Stocko</text>
		<text transform="matrix(1 0 0 1 130.8848 101.9092)" fill="#15253F" font-family="'Poppins-BoldItalic'" font-size="31.8917">Supply</text>
	</g>
</g>
</svg>
