<?xml version="1.0" encoding="utf-8"?>
<!-- Generator: Adobe Illustrator 16.0.0, SVG Export Plug-In . SVG Version: 6.00 Build 0)  -->
<!DOCTYPE svg PUBLIC "-//W3C//DTD SVG 1.1//EN" "http://www.w3.org/Graphics/SVG/1.1/DTD/svg11.dtd">
<svg version="1.1" id="Layer_1" xmlns="http://www.w3.org/2000/svg" xmlns:xlink="http://www.w3.org/1999/xlink" x="0px" y="0px"
	 width="566.93px" height="566.93px" viewBox="0 0 566.93 566.93" enable-background="new 0 0 566.93 566.93" xml:space="preserve">
<ellipse fill="#15253F" cx="188.68" cy="243.597" rx="96.977" ry="96.966"/>
<g>
	<g>
		<path fill="#FFFFFF" d="M169.839,231.127l-9.374-3.671l-8.115,5.577v-24.811l-17.517,5.761v11.299
			c1.889,0.087,3.935,0.556,6.083,1.484c9.336,4.038,16.904,14.878,16.904,24.216c0,9.335-7.568,13.633-16.904,9.596
			c-2.147-0.929-4.194-2.23-6.083-3.779v19.841l70.137,23.062V190.917l-35.132,11.554V231.127z M240.702,208.222v24.811
			l-4.704-5.577l-5.433,3.671v-28.658l-20.363-11.552v108.784l40.655-23.062v-62.657L240.702,208.222z"/>
		<path fill="#FFC534" d="M139.148,229.32l-36.753-15.892c0,5.912,4.792,12.778,10.706,15.334l0.111,0.048
			c0,4.287,3.474,9.263,7.761,11.117l3.644,1.576c1.577,7.266,7.463,14.722,14.531,17.777c8.272,3.575,14.979-0.231,14.979-8.503
			C154.127,242.503,147.42,232.897,139.148,229.32z"/>
	</g>
	<g>
		<text transform="matrix(1 0 0 1 290.1201 239.3828)" fill="#FFC534" font-family="'Poppins-BoldItalic'" font-size="49.4324">Stocko</text>
		<text transform="matrix(1 0 0 1 290.1172 285.2021)" fill="#15253F" font-family="'Poppins-BoldItalic'" font-size="49.4324">Supply</text>
	</g>
</g>
</svg>
