<?xml version="1.0" encoding="utf-8"?>
<!-- Generator: Adobe Illustrator 16.0.0, SVG Export Plug-In . SVG Version: 6.00 Build 0)  -->
<!DOCTYPE svg PUBLIC "-//W3C//DTD SVG 1.1//EN" "http://www.w3.org/Graphics/SVG/1.1/DTD/svg11.dtd">
<svg version="1.1" id="Layer_1" xmlns="http://www.w3.org/2000/svg" xmlns:xlink="http://www.w3.org/1999/xlink" x="0px" y="0px"
	 width="160px" height="160px" viewBox="0 0 160 160" enable-background="new 0 0 160 160" xml:space="preserve">
<path fill="#15253F" d="M80.536,9.797c25.562,0,46.282,20.276,46.282,45.289c0,25.016-20.721,45.291-46.282,45.291
	c-25.563,0-46.285-20.274-46.285-45.291C34.251,30.073,54.973,9.797,80.536,9.797z"/>
<g>
	<path fill="#FFFFFF" d="M71.544,49.262l-4.475-1.712l-3.874,2.603V38.563l-8.36,2.693v5.276c0.902,0.042,1.878,0.262,2.904,0.693
		c4.456,1.885,8.067,6.948,8.067,11.31c0,4.359-3.611,6.368-8.067,4.484c-1.024-0.435-2.002-1.042-2.904-1.765v9.266l33.473,10.77
		V30.482l-16.767,5.398v13.381H71.544z M105.363,38.563v11.589l-2.244-2.603l-2.594,1.712V35.877l-9.717-5.395V81.29l19.4-10.77
		V41.256L105.363,38.563z"/>
	<path fill="#FFC534" d="M56.896,48.419l-17.541-7.422c0,2.76,2.286,5.97,5.109,7.164l0.053,0.018c0,2.005,1.657,4.327,3.705,5.194
		l1.739,0.737c0.752,3.395,3.562,6.875,6.935,8.303c3.948,1.67,7.149-0.107,7.149-3.971C64.045,54.577,60.844,50.09,56.896,48.419z"
		/>
</g>
<g>
	<text transform="matrix(1.0219 0 0 1 14.6748 121.6221)" enable-background="new    "><tspan x="0" y="0" fill="#FFC534" font-family="'Poppins-BoldItalic'" font-size="18.3423">Stocko </tspan><tspan x="68.893" y="0" fill="#15253F" font-family="'Poppins-BoldItalic'" font-size="18.3423">Supply</tspan></text>
</g>
</svg>
